<svg width="20" height="20" viewBox="0 0 20 20" fill="none" xmlns="http://www.w3.org/2000/svg">
<path d="M9.5268 0.295016C9.57062 0.206477 9.63832 0.131948 9.72225 0.0798409C9.80618 0.0277337 9.90301 0.00012207 10.0018 0.00012207C10.1006 0.00012207 10.1974 0.0277337 10.2813 0.0798409C10.3653 0.131948 10.433 0.206477 10.4768 0.295016L12.7868 4.97402C12.939 5.28198 13.1636 5.54842 13.4414 5.75047C13.7192 5.95251 14.0419 6.08413 14.3818 6.13402L19.5478 6.89002C19.6457 6.9042 19.7376 6.94549 19.8133 7.00921C19.8889 7.07294 19.9452 7.15656 19.9758 7.25062C20.0064 7.34468 20.0101 7.44542 19.9864 7.54145C19.9627 7.63748 19.9126 7.72497 19.8418 7.79402L16.1058 11.432C15.8594 11.6721 15.6751 11.9685 15.5686 12.2956C15.4622 12.6228 15.4369 12.9709 15.4948 13.31L16.3768 18.45C16.3941 18.5479 16.3835 18.6486 16.3463 18.7407C16.3091 18.8328 16.2467 18.9126 16.1663 18.971C16.086 19.0294 15.9908 19.064 15.8917 19.0709C15.7926 19.0778 15.6935 19.0567 15.6058 19.01L10.9878 16.582C10.6835 16.4222 10.345 16.3388 10.0013 16.3388C9.65762 16.3388 9.31908 16.4222 9.0148 16.582L4.3978 19.01C4.31013 19.0564 4.2112 19.0773 4.11225 19.0703C4.0133 19.0632 3.91832 19.0286 3.83809 18.9702C3.75787 18.9119 3.69563 18.8322 3.65846 18.7402C3.62128 18.6483 3.61066 18.5477 3.6278 18.45L4.5088 13.311C4.567 12.9717 4.54178 12.6234 4.43534 12.2961C4.32889 11.9687 4.14441 11.6722 3.8978 11.432L0.1618 7.79502C0.0903935 7.72605 0.0397929 7.63841 0.0157621 7.54209C-0.00826864 7.44577 -0.00476337 7.34463 0.0258785 7.25021C0.0565203 7.15578 0.113067 7.07186 0.189076 7.008C0.265086 6.94414 0.357503 6.90291 0.4558 6.88902L5.6208 6.13402C5.96106 6.08451 6.28419 5.95307 6.56238 5.751C6.84058 5.54893 7.0655 5.28229 7.2178 4.97402L9.5268 0.295016Z" fill="#F9AE0E"/>
</svg>
